<svg xmlns="http://www.w3.org/2000/svg" xmlns:svg="http://www.w3.org/2000/svg" id="svg9325" width="48" height="48" version="1.1" viewBox="0 0 48 48"><g id="layer1" transform="translate(0,-1004.3622)"><g id="g9858" transform="matrix(0.96875083,0,0,0.96875072,0.74995441,32.135604)"><g id="g9862" transform="matrix(0.77613924,0,0,0.77613932,2.4170074,228.43083)"><path style="fill:none;stroke:#000;stroke-width:1.99459255;stroke-linecap:round;stroke-linejoin:round;stroke-miterlimit:4;stroke-dasharray:none;stroke-opacity:1" id="path9865" d="m 7.7035341,1019.1101 0,8.1334 16.2667979,0 0,-8.1334 0,8.1334 -16.2667979,0 z"/><circle style="fill:none;stroke:#000;stroke-width:1.47140908;stroke-linecap:round;stroke-linejoin:round;stroke-miterlimit:4;stroke-dasharray:none;stroke-dashoffset:0;stroke-opacity:1" id="circle9867" cx="18" cy="1036.732" r="3" transform="matrix(1.3555665,0,0,1.3555665,-8.5632642,-391.16994)"/></g><ellipse id="ellipse9869" cx="33.29" cy="1037.652" rx="14.71" ry="14.71" style="fill:none;stroke:#000;stroke-width:1.54838586;stroke-linecap:round;stroke-linejoin:round;stroke-miterlimit:4;stroke-dasharray:none;stroke-opacity:1"/><path style="fill:none;stroke:#000;stroke-width:1.54838586;stroke-linecap:round;stroke-linejoin:round;stroke-miterlimit:4;stroke-dasharray:none;stroke-opacity:1" id="path9871" d="m 19.284464,1033.0513 a 14.710123,14.710124 0 0 1 -17.0622595,-6.2038 14.710123,14.710124 0 0 1 1.9574189,-18.0492 14.710123,14.710124 0 0 1 17.9955116,-2.4017 14.710123,14.710124 0 0 1 6.622422,16.9041"/><path id="path9873" d="m 33.289879,1028.3621 0,18" style="fill:none;fill-rule:evenodd;stroke:#000;stroke-width:1.54838586;stroke-linecap:round;stroke-linejoin:round;stroke-miterlimit:4;stroke-dasharray:none;stroke-opacity:1"/><path style="fill:none;fill-rule:evenodd;stroke:#000;stroke-width:1.54838586;stroke-linecap:round;stroke-linejoin:round;stroke-miterlimit:4;stroke-dasharray:none;stroke-opacity:1" id="path9875" d="m 42.289879,1037.6521 -18,0"/></g></g><metadata/></svg>